<?xml version="1.0" encoding="utf-8"?>
<!-- Generator: Adobe Illustrator 19.0.0, SVG Export Plug-In . SVG Version: 6.00 Build 0)  -->
<svg version="1.1" id="Layer_1" xmlns="http://www.w3.org/2000/svg" xmlns:xlink="http://www.w3.org/1999/xlink" x="0px" y="0px"
	 viewBox="-196 338.5 146.6 117.4" style="enable-background:new -196 338.5 146.6 117.4;" xml:space="preserve">
<style type="text/css">
	.st0{fill:url(#SVGID_1_);}
	.st1{fill:url(#SVGID_2_);}
	.st2{fill:#231F20;}
	.st3{fill:url(#SVGID_3_);}
</style>
<g>
	
		<linearGradient id="SVGID_1_" gradientUnits="userSpaceOnUse" x1="-110.784" y1="382.9151" x2="-137.4151" y2="430.9588" gradientTransform="matrix(1 0 0 -1 0 796)">
		<stop  offset="0" style="stop-color:#FFDE00"/>
		<stop  offset="0.18" style="stop-color:#FED600"/>
		<stop  offset="0.55" style="stop-color:#FFCD0A"/>
		<stop  offset="0.84" style="stop-color:#956B29"/>
		<stop  offset="1" style="stop-color:#30130D"/>
	</linearGradient>
	<path class="st0" d="M-138.6,373.8l-5.4,11.8c0,13.4,26.2,13.4,29.6,13.4l0,0c3.4,0,12,1.3,12,1.3c-2.4-22.7-21.4-32.9-21.4-32.9
		L-138.6,373.8z"/>
	
		<linearGradient id="SVGID_2_" gradientUnits="userSpaceOnUse" x1="-87.8692" y1="432.7342" x2="-150.8493" y2="433.8335" gradientTransform="matrix(1 0 0 -1 0 796)">
		<stop  offset="0" style="stop-color:#FFDE00"/>
		<stop  offset="0.63" style="stop-color:#FFCD0A"/>
		<stop  offset="1" style="stop-color:#B16B28"/>
	</linearGradient>
	<path class="st1" d="M-143.9,353.6v33.2c0,0,2-4.5,7.5-7.3l0,0c8.9-4.4,31.6-15.2,34-41c0,0-9.1,1.6-13.9,2.4l0,0
		C-120.9,341.6-143.8,341.8-143.9,353.6z"/>
	<path class="st2" d="M-195.8,453l1-0.1c0,0.7,0.2,1.1,0.4,1.4c0.2,0.2,0.5,0.4,0.9,0.4c0.3,0,0.5-0.1,0.7-0.2
		c0.2-0.1,0.4-0.3,0.4-0.5c0.1-0.2,0.1-0.6,0.1-1.1V447h1.1v5.9c0,0.7-0.1,1.3-0.3,1.7s-0.4,0.7-0.8,0.9c-0.4,0.2-0.8,0.3-1.3,0.3
		c-0.8,0-1.3-0.2-1.7-0.7C-195.7,454.5-195.9,453.8-195.8,453z"/>
	<polygon class="st2" points="-180.6,455.4 -180.6,446.8 -174.3,446.8 -174.3,447.8 -179.4,447.8 -179.4,450.5 -174.7,450.5 
		-174.7,451.5 -179.4,451.5 -179.4,454.4 -174.1,454.4 -174.1,455.4 	"/>
	<path class="st2" d="M-162.4,455.4l-2.3-8.6h1.2l1.3,5.6c0.1,0.6,0.3,1.2,0.4,1.8c0.2-0.9,0.3-1.5,0.4-1.6l1.6-5.8h1.4l1.2,4.4
		c0.3,1.1,0.5,2.1,0.7,3.1c0.1-0.5,0.3-1.2,0.4-1.9l1.4-5.5h1.1l-2.4,8.6h-1.1l-1.8-6.6c-0.2-0.5-0.2-0.9-0.3-1
		c-0.1,0.4-0.2,0.7-0.3,1l-1.8,6.6h-1.1V455.4z"/>
	<polygon class="st2" points="-143.8,455.4 -143.8,446.8 -137.6,446.8 -137.6,447.8 -142.7,447.8 -142.7,450.5 -137.9,450.5 
		-137.9,451.5 -142.7,451.5 -142.7,454.4 -137.4,454.4 -137.4,455.4 	"/>
	<polygon class="st2" points="-127.2,455.4 -127.2,446.8 -126.1,446.8 -126.1,454.4 -121.8,454.4 -121.8,455.4 	"/>
	<polygon class="st2" points="-107.7,455.4 -107.7,446.8 -106.6,446.8 -106.6,454.4 -102.3,454.4 -102.3,455.4 	"/>
	<polygon class="st2" points="-92.1,455.4 -92.1,446.8 -85.9,446.8 -85.9,447.8 -91,447.8 -91,450.5 -86.2,450.5 -86.2,451.5 
		-91,451.5 -91,454.4 -85.7,454.4 -85.7,455.4 	"/>
	<path class="st2" d="M-75.3,455.4v-8.6h3.8c0.8,0,1.4,0.1,1.8,0.2c0.4,0.2,0.7,0.4,1,0.8c0.2,0.4,0.4,0.8,0.4,1.3
		c0,0.6-0.2,1.1-0.6,1.5c-0.4,0.4-1,0.7-1.8,0.8c0.3,0.1,0.5,0.3,0.7,0.4c0.3,0.3,0.6,0.7,0.9,1.1l1.5,2.3H-69l-1.1-1.8
		c-0.3-0.5-0.6-0.9-0.8-1.2c-0.2-0.3-0.4-0.5-0.6-0.6c-0.2-0.1-0.3-0.2-0.5-0.2c-0.1,0-0.3,0-0.6,0h-1.3v3.8h-1.4V455.4z
		 M-74.2,450.6L-74.2,450.6h2.5c0.5,0,0.9-0.1,1.2-0.2s0.5-0.3,0.7-0.5c0.2-0.2,0.2-0.5,0.2-0.8c0-0.4-0.1-0.7-0.4-1
		c-0.3-0.3-0.8-0.4-1.4-0.4h-2.7v2.9H-74.2z"/>
	<path class="st2" d="M-56.3,452.7l1.1-0.1c0,0.4,0.2,0.8,0.4,1.1c0.2,0.3,0.5,0.5,0.9,0.7c0.4,0.2,0.8,0.3,1.3,0.3
		c0.4,0,0.8-0.1,1.2-0.2c0.3-0.1,0.6-0.3,0.7-0.5c0.2-0.2,0.2-0.5,0.2-0.7c0-0.3-0.1-0.5-0.2-0.7c-0.2-0.2-0.4-0.4-0.8-0.5
		c-0.2-0.1-0.7-0.2-1.5-0.4c-0.8-0.2-1.3-0.4-1.7-0.5c-0.4-0.2-0.7-0.5-0.9-0.8c-0.2-0.3-0.3-0.7-0.3-1.1c0-0.4,0.1-0.8,0.4-1.2
		c0.2-0.4,0.6-0.7,1.1-0.9c0.5-0.2,1-0.3,1.6-0.3s1.2,0.1,1.7,0.3c0.5,0.2,0.9,0.5,1.1,0.9c0.3,0.4,0.4,0.9,0.4,1.4l-1.1,0.1
		c-0.1-0.5-0.3-1-0.6-1.2c-0.3-0.3-0.8-0.4-1.5-0.4s-1.2,0.1-1.5,0.4c-0.3,0.3-0.5,0.6-0.5,0.9c0,0.3,0.1,0.6,0.3,0.8
		c0.2,0.2,0.8,0.4,1.7,0.6c0.9,0.2,1.6,0.4,1.9,0.6c0.5,0.2,0.9,0.5,1.1,0.9c0.2,0.4,0.4,0.8,0.4,1.2c0,0.5-0.1,0.9-0.4,1.3
		c-0.3,0.4-0.6,0.7-1.1,0.9c-0.5,0.2-1,0.3-1.7,0.3c-0.8,0-1.4-0.1-2-0.3c-0.5-0.2-0.9-0.6-1.2-1C-56.1,453.8-56.3,453.2-56.3,452.7
		z"/>
	
		<radialGradient id="SVGID_3_" cx="-122.75" cy="370.3" r="39.2137" gradientTransform="matrix(1 0 0 -1 0 796)" gradientUnits="userSpaceOnUse">
		<stop  offset="0" style="stop-color:#EB2227"/>
		<stop  offset="0.54" style="stop-color:#E01F26"/>
		<stop  offset="1" style="stop-color:#CD2027"/>
	</radialGradient>
	<path class="st3" d="M-49.5,442.4l-0.3-0.3l-21.9-22.4v20.9v0.2h-0.2H-76h-0.2v-0.2v-31.2V409l0.3,0.3l21.9,22.5v-21.2v-0.2h0.2
		h4.1h0.2v0.2V442V442.4L-49.5,442.4z M-78.5,440.7L-78.5,440.7h-0.3h-4.3h-0.1v-0.1l-9.7-21.4l-9.6,21.4v0.1h-0.1h-4.4h-0.3
		l0.1-0.2l14-31.1l0.2-0.3l0.2,0.3l14.1,31.1L-78.5,440.7L-78.5,440.7z M-113,440.7v-0.2v-13.7l9.8-16.2l0.2-0.3h-0.3h-4.5h-0.2
		l-0.1,0.1l-7.1,11.8l-7.2-11.8l-0.1-0.1h-0.1h-4.5h-0.3l0.2,0.3l9.8,16.2v13.6v0.2h0.2L-113,440.7L-113,440.7L-113,440.7
		L-113,440.7z M-125.8,440.7L-125.8,440.7h-0.2h-13.8h-0.2v-0.2v-30v-0.2h0.2h4h0.2v0.2v25.7h9.6h0.2v0.2v4V440.7L-125.8,440.7z
		 M-142.5,440.7L-142.5,440.7h-0.3h-4.2h-0.1v-0.1l-9.7-21.4l-9.6,21.4v0.1h-0.1h-4.3h-0.3l0.1-0.2l14-31.1l0.2-0.3l0.2,0.3
		l14.1,31.1V440.7L-142.5,440.7z M-172.7,440.7L-172.7,440.7h-0.4h-5.2h-0.1l-0.1-0.1l-13-14.3v14.2v0.2h-0.2h-4.1h-0.2v-0.2v-30
		v-0.2h0.2h4.1h0.2v0.2v11.8l12.5-11.8l0,0h0.1h5.7h0.4l-0.3,0.3l-14.4,13.8l14.5,15.9L-172.7,440.7z"/>
</g>
</svg>
